Coordinates
version=1
nRows=17
nColumns=24
inDegrees=yes

Units are S.I. units (second, meters, Newtons, ...)
Angles are in degrees.

endheader
time	pelvis_tilt	pelvis_list	pelvis_rotation	pelvis_tx	pelvis_ty	pelvis_tz	hip_flexion_r	hip_adduction_r	hip_rotation_r	knee_angle_r	ankle_angle_r	subtalar_angle_r	mtp_angle_r	hip_flexion_l	hip_adduction_l	hip_rotation_l	knee_angle_l	ankle_angle_l	subtalar_angle_l	mtp_angle_l	lumbar_extension	lumbar_bending	lumbar_rotation
      5.92000000	      5.47681510	      1.25977751	      6.91449872	      1.85869177	      0.88489658	     -0.16807051	    -28.69988575	      6.15824276	    -11.79747915	    -11.56048499	     17.02704463	     14.50302033	      0.00000000	     16.33022079	      8.30679295	      1.76307240	     -6.13094768	      4.30843487	     -6.37736186	      0.00000000	    -26.52697859	      1.23020237	      7.10740265
      5.93000000	      5.43960644	      1.74271496	      7.05861973	      1.87445340	      0.88335773	     -0.16922511	    -28.00462486	      5.20553130	    -13.26164091	    -14.47085743	     15.63934007	     15.83679488	      0.00000000	     17.23842426	      8.99627535	      0.39847890	     -9.27025038	      4.86052185	     -5.65944848	      0.00000000	    -26.43753992	      0.66992008	      6.59423434
      5.94000000	      5.46596938	      2.22450314	      7.06336516	      1.89003762	      0.88218614	     -0.17018683	    -27.15798343	      4.12027257	    -14.35210012	    -17.64063377	     13.69729100	     16.77359146	      0.00000000	     18.13068648	      9.55199165	     -0.60774736	    -12.46651961	      5.56509998	     -5.43199076	      0.00000000	    -26.50857320	      0.07304567	      6.16880295
      5.95000000	      5.63341267	      2.69966352	      6.95053835	      1.90542375	      0.88144338	     -0.17093614	    -26.25712714	      2.97388197	    -14.94707340	    -20.98753552	     11.14068182	     17.26807042	      0.00000000	     18.95661643	      9.97125268	     -1.53077029	    -15.81009061	      6.76970678	     -5.13340524	      0.00000000	    -26.80956707	     -0.53901472	      5.70276226
      5.96000000	      5.88701571	      3.03693655	      6.74789103	      1.92051749	      0.88098261	     -0.17157827	    -25.18115838	      1.89244523	    -15.13976421	    -24.54375686	      8.04729173	     17.41964595	      0.00000000	     19.72435405	     10.19728402	     -2.15227398	    -19.22302317	      8.32794622	     -4.95290173	      0.00000000	    -27.24675039	     -0.99301974	      5.35160919
      5.97000000	      6.25838468	      3.26486130	      6.45949160	      1.93537832	      0.88081658	     -0.17208814	    -23.99830216	      0.90215937	    -14.90008041	    -28.23236072	      4.48709351	     17.28294484	      0.00000000	     20.28114837	     10.27312496	     -2.60696296	    -22.53253717	     10.21978357	     -4.67161930	      0.00000000	    -27.82183095	     -1.32129470	      4.96538962
      5.98000000	      6.68674088	      3.37340388	      6.04883564	      1.94998739	      0.88085983	     -0.17246777	    -22.62718881	     -0.02281304	    -14.35681311	    -32.07813132	      0.74048446	     17.05580691	      0.00000000	     20.58654373	     10.20047337	     -3.00018936	    -25.55010620	     12.27143729	     -4.29142050	      0.00000000	    -28.44184811	     -1.52560006	      4.68511358
      5.99000000	      7.07243938	      3.42485439	      5.49983322	      1.96439106	      0.88101759	     -0.17271374	    -20.99065778	     -0.94092699	    -13.54864965	    -36.05310505	     -2.89236237	     16.82911735	      0.00000000	     20.63106192	     10.06277473	     -3.37616676	    -28.07120602	     14.34133886	     -3.88008233	      0.00000000	    -28.96303650	     -1.69589022	      4.39322387
      6.00000000	      7.36144578	      3.45626103	      4.81767105	      1.97856794	      0.88126734	     -0.17283912	    -19.06217440	     -1.87459219	    -12.54507818	    -40.10935114	     -6.07440097	     16.72896222	      0.00000000	     20.42702376	      9.89383535	     -3.83908573	    -29.99614459	     16.36921706	     -3.41297266	      0.00000000	    -29.32364319	     -1.87461980	      4.12724038
      6.01000000	      7.51183817	      3.56562926	      3.97343974	      1.99255850	      0.88163110	     -0.17278650	    -16.83557083	     -2.88554988	    -11.31093443	    -44.18705577	     -8.53563791	     16.70117871	      0.00000000	     19.98843932	      9.79299247	     -4.44200148	    -31.24364622	     18.17212001	     -3.02786759	      0.00000000	    -29.46036849	     -2.18688110	      3.77774076
      6.02000000	      7.53861674	      3.74481738	      2.99168482	      2.00636360	      0.88216521	     -0.17257536	    -14.37322729	     -3.91976463	     -9.88457401	    -48.17326284	    -10.04135007	     16.78712637	      0.00000000	     19.34911700	      9.75745763	     -5.19101005	    -31.87702912	     19.74514361	     -2.72403806	      0.00000000	    -29.38889684	     -2.60930850	      3.38227276
      6.03000000	      7.48064861	      3.96323438	      1.92673684	      2.01999901	      0.88295732	     -0.17225738	    -11.76444983	     -4.88618615	     -8.30385672	    -51.95302481	    -10.50748140	     16.97140353	      0.00000000	     18.52948207	      9.77948567	     -6.01468454	    -31.99376284	     21.07832118	     -2.50003402	      0.00000000	    -29.14296012	     -3.07926267	      2.93972510
      6.04000000	      7.40766575	      4.17364914	      0.85125376	      2.03345814	      0.88412114	     -0.17191662	     -9.13588126	     -5.70352359	     -6.66840024	    -55.41991595	     -9.97511850	     17.24085315	      0.00000000	     17.53264338	      9.83309129	     -6.84171913	    -31.72724877	     22.13767678	     -2.39990095	      0.00000000	    -28.81251958	     -3.50902248	      2.43150805
      6.05000000	      7.27934832	      4.29744033	     -0.12403359	      2.04678146	      0.88564020	     -0.17167313	     -6.50868838	     -6.24674475	     -5.06665676	    -58.47812586	     -8.56967278	     17.45214114	      0.00000000	     16.44938085	      9.88585314	     -7.47181531	    -31.18589435	     23.04516117	     -2.34111059	      0.00000000	    -28.34406976	     -3.77415340	      1.88206331
      6.06000000	      7.23837146	      4.33622917	     -0.95000998	      2.05994139	      0.88772219	     -0.17160738	     -4.08608003	     -6.55508626	     -3.62856503	    -61.07061758	     -6.54252167	     17.69337951	      0.00000000	     15.16279472	      9.94648298	     -7.86979531	    -30.43942851	     23.69373763	     -2.45495756	      0.00000000	    -27.94608339	     -3.85283597	      1.21821606
      6.07000000	      7.15398367	      4.23869896	     -1.51708819	      2.07297246	      0.89021066	     -0.17180833	     -1.77746050	     -6.57519489	     -2.45822188	    -63.16890251	     -4.11049051	     17.75728621	      0.00000000	     13.83184217	      9.97068080	     -7.90850269	    -29.54809814	     24.10841748	     -2.66024263	      0.00000000	    -27.47219879	     -3.66893950	      0.42325714
      6.08000000	      7.15920209	      4.04266483	     -1.87229980	      2.08586786	      0.89325166	     -0.17221442	      0.26517877	     -6.40229982	     -1.55554853	    -64.76908087	     -1.55624252	     17.65863478	      0.00000000	     12.31579015	      9.95530425	     -7.70852331	    -28.51535686	     24.32509367	     -2.91623600	      0.00000000	    -27.10093533	     -3.28880094	     -0.49879269
